<svg xmlns="http://www.w3.org/2000/svg"  viewBox="0 0 100 100" width="50px" height="50px" baseProfile="basic"><path fill="#f9dbd2" d="M50,12c-20.987,0-38,17.013-38,38s17.013,38,38,38s38-17.013,38-38S70.987,12,50,12z"/><path fill="#f1bc19" d="M78,13c-0.552,0-1,0.448-1,1s0.448,1,1,1s1-0.448,1-1S78.552,13,78,13z"/><path fill="#f1bc19" d="M84,12c-2.209,0-4,1.791-4,4s1.791,4,4,4s4-1.791,4-4S86.209,12,84,12z"/><path fill="#f1bc19" d="M86,30c-0.552,0-1,0.448-1,1s0.448,1,1,1s1-0.448,1-1S86.552,30,86,30z"/><path fill="#ee3e54" d="M14,24c-1.105,0-2,0.895-2,2s0.895,2,2,2s2-0.895,2-2S15.105,24,14,24z"/><path fill="#fbcd59" d="M78,75c-1.105,0-2,0.895-2,2s0.895,2,2,2s2-0.895,2-2S79.105,75,78,75z M17,74 c-2.209,0-4,1.791-4,4s1.791,4,4,4s4-1.791,4-4S19.209,74,17,74z"/><path fill="#ee3e54" d="M24,81c-1.105,0-2,0.895-2,2s0.895,2,2,2s2-0.895,2-2S25.105,81,24,81z"/><path fill="#fff" d="M66.483,76.034c-1.371,0-2.483,1.112-2.483,2.483S65.112,81,66.483,81s2.483-1.112,2.483-2.483 S67.854,76.034,66.483,76.034z M16,47c-0.552,0-1,0.448-1,1s0.448,1,1,1c0.552,0,1-0.448,1-1S16.552,47,16,47z"/><path fill="#fff" d="M80,64c-1.105,0-2,0.895-2,2s0.895,2,2,2s2-0.895,2-2S81.105,64,80,64z"/><path fill="#f96c55" d="M66.833,71.5H33.417c-2.647,0-4.792-2.145-4.792-4.792V33.292c0-2.647,2.145-4.792,4.792-4.792 h33.417c2.646,0,4.791,2.145,4.791,4.792v33.417C71.625,69.355,69.48,71.5,66.833,71.5z"/><path fill="#dd583a" d="M50.375,33.625l21.654,20.538l0.096,13.25c0.016,2.184-1.782,3.962-4.005,3.962H51.126 C51.126,71.375,50.375,33.133,50.375,33.625z"/><polygon fill="#f9dac0" points="59.125,59 59.125,72 41.125,72 41.125,59 50.125,34"/><path fill="#f59172" d="M53.125,61v11h-6V61c0-2.76,1.34-5,3-5S53.125,58.24,53.125,61z"/><path fill="#f8ab97" d="M47.125,61v11h-6V61c0-2.76,1.34-5,3-5S47.125,58.24,47.125,61z"/><path fill="#848484" d="M53.375,43c0,0-3.062-8.812-3.25-9l3.148,9H53.375z"/><polygon fill="#96755f" points="58.125,56.875 53.273,43 51.163,43 53.125,60"/><polygon fill="#605e60" points="50,33.75 51.163,43 53.273,43"/><path fill="#5a5c70" d="M59.125,61v11h-6V61c0-2.76,1.34-5,3-5S59.125,58.24,59.125,61z"/><polygon fill="#848484" points="47.125,43 51.163,43 50.125,34"/><path fill="#472b29" d="M66.25,28.9c2.743,0,4.975,2.232,4.975,4.975v32.25c0,2.743-2.232,4.975-4.975,4.975H34 c-2.743,0-4.975-2.232-4.975-4.975v-32.25c0-2.743,2.232-4.975,4.975-4.975H66.25 M66.25,27.5H34c-3.521,0-6.375,2.854-6.375,6.375 v32.25c0,3.521,2.854,6.375,6.375,6.375h32.25c3.521,0,6.375-2.854,6.375-6.375v-32.25C72.625,30.354,69.771,27.5,66.25,27.5 L66.25,27.5z"/><path fill="#472b29" d="M52.549,55.125c-0.125,0-0.232-0.093-0.248-0.22l-0.636-5.25c-0.017-0.138,0.081-0.262,0.218-0.278 c0.148-0.02,0.262,0.08,0.278,0.218l0.636,5.25c0.017,0.138-0.081,0.262-0.218,0.278C52.568,55.124,52.559,55.125,52.549,55.125z"/><path fill="#472b29" d="M51.579,47.125c-0.125,0-0.233-0.094-0.248-0.221l-0.146-1.25c-0.017-0.138,0.082-0.262,0.219-0.277 c0.13-0.009,0.262,0.082,0.277,0.219l0.146,1.25c0.017,0.138-0.082,0.262-0.219,0.277C51.599,47.124,51.589,47.125,51.579,47.125z"/><path fill="#472b29" d="M51.286,44.625c-0.125,0-0.233-0.094-0.248-0.221l-0.161-1.375 c-0.017-0.138,0.082-0.262,0.219-0.277c0.134-0.012,0.262,0.082,0.277,0.219l0.161,1.375c0.017,0.138-0.082,0.262-0.219,0.277 C51.306,44.624,51.296,44.625,51.286,44.625z"/><path fill="#472b29" d="M51.125,43.5c-0.125,0-0.232-0.093-0.248-0.22l-1-8.25c-0.017-0.138,0.081-0.262,0.218-0.278 c0.145-0.017,0.262,0.081,0.278,0.218l1,8.25c0.017,0.138-0.081,0.262-0.218,0.278C51.145,43.499,51.135,43.5,51.125,43.5z"/><path fill="#472b29" d="M59.125,72.5h-18c-0.276,0-0.5-0.224-0.5-0.5V60.396c0-0.983,0.169-1.952,0.502-2.879l8.527-23.687 c0.143-0.398,0.799-0.398,0.941,0l8.527,23.687c0.333,0.927,0.502,1.896,0.502,2.879V72C59.625,72.276,59.401,72.5,59.125,72.5z M41.625,71.5h17V60.396c0-0.868-0.149-1.723-0.443-2.541l-8.057-22.379l-8.057,22.379c-0.294,0.818-0.443,1.673-0.443,2.541V71.5 z"/><path fill="#472b29" d="M53.25,43.25h-6.125c-0.138,0-0.25-0.112-0.25-0.25s0.112-0.25,0.25-0.25h6.125 c0.138,0,0.25,0.112,0.25,0.25S53.388,43.25,53.25,43.25z"/><path fill="#472b29" d="M59.375,72.25h-18.5V61c0-2.895,1.458-5.25,3.25-5.25c1.35,0,2.509,1.335,3,3.23 c0.491-1.896,1.65-3.23,3-3.23s2.509,1.335,3,3.23c0.491-1.896,1.65-3.23,3-3.23c1.792,0,3.25,2.355,3.25,5.25V72.25z M41.375,71.75h17.5V61c0-2.619-1.233-4.75-2.75-4.75s-2.75,2.131-2.75,4.75h-0.5c0-2.619-1.233-4.75-2.75-4.75 s-2.75,2.131-2.75,4.75h-0.5c0-2.619-1.233-4.75-2.75-4.75s-2.75,2.131-2.75,4.75V71.75z"/><path fill="#472b29" d="M47.125,71.875c-0.138,0-0.25-0.112-0.25-0.25V61c0-0.138,0.112-0.25,0.25-0.25 s0.25,0.112,0.25,0.25v10.625C47.375,71.763,47.263,71.875,47.125,71.875z"/><path fill="#472b29" d="M53.125,71.875c-0.138,0-0.25-0.112-0.25-0.25V67.25c0-0.138,0.112-0.25,0.25-0.25 s0.25,0.112,0.25,0.25v4.375C53.375,71.763,53.263,71.875,53.125,71.875z"/><path fill="#472b29" d="M53.125,65.125c-0.138,0-0.25-0.112-0.25-0.25V61c0-0.138,0.112-0.25,0.25-0.25 s0.25,0.112,0.25,0.25v3.875C53.375,65.013,53.263,65.125,53.125,65.125z"/></svg>